<svg xmlns="http://www.w3.org/2000/svg" viewBox="0 0 22 14" width="22" height="14">
	<style>
		tspan { white-space:pre }
		.shp0 { opacity: 0.702;fill: #ffffff } 
	</style>
	<g id="Most Service">
		<g id="1 - Image">
			<path id="Rectangle 18 copy 6" class="shp0" d="M0 6L21 6L21 7L0 7L0 6ZM0 7L21 7L21 8L0 8L0 7ZM13.95 -0.09L21.39 6.6L20.72 7.34L13.28 0.66L13.95 -0.09ZM13.28 0.66L20.72 7.34L20.05 8.08L12.61 1.4L13.28 0.66ZM19.63 6L12 12.54L12.69 13.27L20.31 6.73L19.63 6ZM20.31 6.73L12.69 13.27L13.37 14L21 7.45L20.31 6.73ZM0 6L21 6L21 7L0 7L0 6ZM0 7L21 7L21 8L0 8L0 7ZM13.95 -0.09L21.39 6.6L20.72 7.34L13.28 0.66L13.95 -0.09ZM13.28 0.66L20.72 7.34L20.05 8.08L12.61 1.4L13.28 0.66ZM19.63 6L12 12.54L12.69 13.27L20.31 6.73L19.63 6ZM20.31 6.73L12.69 13.27L13.37 14L21 7.45L20.31 6.73Z" />
		</g>
	</g>
</svg>