<?xml version="1.0" encoding="UTF-8" standalone="no" ?>
<!DOCTYPE svg PUBLIC "-//W3C//DTD SVG 1.1//EN" "http://www.w3.org/Graphics/SVG/1.1/DTD/svg11.dtd">
<svg xmlns="http://www.w3.org/2000/svg" xmlns:xlink="http://www.w3.org/1999/xlink" version="1.1" width="400" height="400" viewBox="0 0 400 400" xml:space="preserve">
<desc>Created with Fabric.js 3.6.2</desc>
<defs>
</defs>
<g transform="matrix(7.22 0 0 7.22 200 200)" id="Pinterest"  >
<path style="stroke: none; stroke-width: 1; stroke-dasharray: none; stroke-linecap: butt; stroke-dashoffset: 0; stroke-linejoin: miter; stroke-miterlimit: 4; fill: rgb(0,0,0); fill-rule: evenodd; opacity: 1;"  transform=" translate(-14, -18)" d="M 16.7594534 27.0844011 C 23.3650607 27.0844011 27.8461538 20.9370493 27.8461538 12.7083106 C 27.8461538 6.48790125 22.683296 0.692307692 14.8387325 0.692307692 C 5.07639298 0.692307692 0.153846154 7.8375106 0.153846154 13.7957548 C 0.153846154 17.4035321 1.49087054 20.6132513 4.36164448 21.8095301 C 4.83195901 22.0055526 5.25338674 21.8158437 5.39032866 21.2845985 C 5.48397927 20.9163046 5.71044882 19.9873019 5.8088114 19.6009691 C 5.94663682 19.0748349 5.89362705 18.8905376 5.51372364 18.4317486 C 4.68677112 17.4341982 4.15902933 16.1453197 4.15902933 14.3176799 C 4.15902933 9.01725377 8.04199552 4.2721247 14.2747673 4.2721247 C 19.7910237 4.2721247 22.8240664 7.71304229 22.8240664 12.3105531 C 22.8240664 18.3583905 20.2024384 23.462794 16.3094593 23.462794 C 14.1590293 23.462794 12.5513606 21.648082 13.0661444 19.4226848 C 13.6825303 16.7655568 14.8805513 13.8967726 14.8805513 11.9786376 C 14.8805513 10.2625382 13.9779126 8.82934871 12.1090234 8.82934871 C 9.91117917 8.82934871 8.14624809 11.1509534 8.14624809 14.2593542 C 8.14624809 16.239122 8.80268583 17.5785093 8.80268583 17.5785093 C 8.80268583 17.5785093 6.55359877 27.3053775 6.15867593 29.0082484 C 5.80056544 30.5589913 5.74696666 32.2633654 5.79732595 33.7037705 C 5.94781482 34.9959561 7.19943456 36.0482244 8.2852515 34.6306686 C 9.0485923 33.3850835 9.86936035 31.8120926 10.2940276 30.2354939 C 10.5472965 29.3025828 11.7400165 24.4699652 11.7400165 24.4699652 C 12.454765 25.860162 14.5412887 27.0844011 16.7594534 27.0844011 Z" stroke-linecap="round" />
</g>
</svg>